<svg width="228" height="115" viewBox="0 0 228 115" fill="none" xmlns="http://www.w3.org/2000/svg">
<path d="M142.78 86.16V59.66V54.76C142.775 51.4703 141.466 48.3168 139.139 45.9906C136.813 43.6645 133.66 42.3553 130.37 42.35H56.02C52.732 42.3579 49.5811 43.6683 47.2571 45.9942C44.9331 48.3201 43.6253 51.472 43.62 54.76V96.92H46.89V54.76C46.8926 52.3367 47.8565 50.0135 49.57 48.2999C51.2835 46.5864 53.6067 45.6226 56.03 45.62H130.37C132.793 45.6226 135.117 46.5864 136.83 48.2999C138.544 50.0135 139.507 52.3367 139.51 54.76V86.16H135.62L141.14 95.16L146.66 86.16H142.78Z" fill="white"/>
<path d="M213.56 96.41H0V99.68H213.56V96.41Z" fill="white"/>
<path d="M55.99 114.27H30.69C29.9898 114.27 29.3183 113.992 28.8232 113.497C28.3281 113.002 28.05 112.33 28.05 111.63V75.63C28.05 74.9298 28.3281 74.2583 28.8232 73.7632C29.3183 73.2681 29.9898 72.99 30.69 72.99H59.91C60.6102 72.99 61.2817 73.2681 61.7768 73.7632C62.2719 74.2583 62.55 74.9298 62.55 75.63V111.63C62.55 112.33 62.2719 113.002 61.7768 113.497C61.2817 113.992 60.6102 114.27 59.91 114.27H55.99Z" fill="white"/>
<path opacity="0.8" d="M55.99 114.27H30.69C29.9898 114.27 29.3183 113.992 28.8232 113.497C28.3281 113.002 28.05 112.33 28.05 111.63V75.63C28.05 74.9298 28.3281 74.2583 28.8232 73.7632C29.3183 73.2681 29.9898 72.99 30.69 72.99H59.91C60.6102 72.99 61.2817 73.2681 61.7768 73.7632C62.2719 74.2583 62.55 74.9298 62.55 75.63V111.63C62.55 112.33 62.2719 113.002 61.7768 113.497C61.2817 113.992 60.6102 114.27 59.91 114.27H55.99Z" fill="white"/>
<path d="M59.91 73H30.69C29.9898 73 29.3183 73.2781 28.8232 73.7732C28.3281 74.2683 28.05 74.9398 28.05 75.64V79.52H62.55V75.64C62.55 74.9398 62.2719 74.2683 61.7768 73.7732C61.2817 73.2781 60.6102 73 59.91 73Z" fill="#263238"/>
<path d="M58.63 77.53C59.2375 77.53 59.73 77.0375 59.73 76.43C59.73 75.8225 59.2375 75.33 58.63 75.33C58.0225 75.33 57.53 75.8225 57.53 76.43C57.53 77.0375 58.0225 77.53 58.63 77.53Z" fill="white"/>
<path d="M54.24 77.53C54.8475 77.53 55.34 77.0375 55.34 76.43C55.34 75.8225 54.8475 75.33 54.24 75.33C53.6325 75.33 53.14 75.8225 53.14 76.43C53.14 77.0375 53.6325 77.53 54.24 77.53Z" fill="white"/>
<path d="M49.86 77.53C50.4675 77.53 50.96 77.0375 50.96 76.43C50.96 75.8225 50.4675 75.33 49.86 75.33C49.2525 75.33 48.76 75.8225 48.76 76.43C48.76 77.0375 49.2525 77.53 49.86 77.53Z" fill="white"/>
<path d="M42.31 86.15L38.45 87.57L42.31 88.97V90.42L36.79 88.32V86.84L42.31 84.73V86.15Z" fill="#263238"/>
<path d="M46.47 81.84H48.08L44.25 92.84H42.62L46.47 81.84Z" fill="#263238"/>
<path d="M53.81 86.84V88.34L48.29 90.44V88.99L52.15 87.59L48.29 86.17V84.73L53.81 86.84Z" fill="#263238"/>
<path d="M38.07 96.53H31.91C31.4737 96.53 31.12 96.8837 31.12 97.32V97.46C31.12 97.8963 31.4737 98.25 31.91 98.25H38.07C38.5063 98.25 38.86 97.8963 38.86 97.46V97.32C38.86 96.8837 38.5063 96.53 38.07 96.53Z" fill="#263238"/>
<path d="M49.27 96.53H41.18C40.7437 96.53 40.39 96.8837 40.39 97.32V97.46C40.39 97.8963 40.7437 98.25 41.18 98.25H49.27C49.7063 98.25 50.06 97.8963 50.06 97.46V97.32C50.06 96.8837 49.7063 96.53 49.27 96.53Z" fill="#263238"/>
<path d="M58.68 96.53H52.39C51.9537 96.53 51.6 96.8837 51.6 97.32V97.46C51.6 97.8963 51.9537 98.25 52.39 98.25H58.68C59.1163 98.25 59.47 97.8963 59.47 97.46V97.32C59.47 96.8837 59.1163 96.53 58.68 96.53Z" fill="#263238"/>
<path d="M38.71 100.81H31.91C31.4737 100.81 31.12 101.164 31.12 101.6V101.74C31.12 102.176 31.4737 102.53 31.91 102.53H38.71C39.1463 102.53 39.5 102.176 39.5 101.74V101.6C39.5 101.164 39.1463 100.81 38.71 100.81Z" fill="#263238"/>
<path d="M50.57 100.81H41.83C41.3937 100.81 41.04 101.164 41.04 101.6V101.74C41.04 102.176 41.3937 102.53 41.83 102.53H50.57C51.0063 102.53 51.36 102.176 51.36 101.74V101.6C51.36 101.164 51.0063 100.81 50.57 100.81Z" fill="#263238"/>
<path d="M58.68 100.81H53.68C53.2437 100.81 52.89 101.164 52.89 101.6V101.74C52.89 102.176 53.2437 102.53 53.68 102.53H58.68C59.1163 102.53 59.47 102.176 59.47 101.74V101.6C59.47 101.164 59.1163 100.81 58.68 100.81Z" fill="#263238"/>
<path d="M37.42 105.08H31.91C31.4737 105.08 31.12 105.434 31.12 105.87V106.01C31.12 106.446 31.4737 106.8 31.91 106.8H37.42C37.8563 106.8 38.21 106.446 38.21 106.01V105.87C38.21 105.434 37.8563 105.08 37.42 105.08Z" fill="#263238"/>
<path d="M48.63 105.08H40.54C40.1037 105.08 39.75 105.434 39.75 105.87V106.01C39.75 106.446 40.1037 106.8 40.54 106.8H48.63C49.0663 106.8 49.42 106.446 49.42 106.01V105.87C49.42 105.434 49.0663 105.08 48.63 105.08Z" fill="#263238"/>
<path d="M58.68 105.08H51.74C51.3037 105.08 50.95 105.434 50.95 105.87V106.01C50.95 106.446 51.3037 106.8 51.74 106.8H58.68C59.1163 106.8 59.47 106.446 59.47 106.01V105.87C59.47 105.434 59.1163 105.08 58.68 105.08Z" fill="#263238"/>
<path d="M40 109.35H31.91C31.4737 109.35 31.12 109.704 31.12 110.14V110.28C31.12 110.716 31.4737 111.07 31.91 111.07H40C40.4363 111.07 40.79 110.716 40.79 110.28V110.14C40.79 109.704 40.4363 109.35 40 109.35Z" fill="#263238"/>
<path d="M50.57 109.35H43.12C42.6837 109.35 42.33 109.704 42.33 110.14V110.28C42.33 110.716 42.6837 111.07 43.12 111.07H50.57C51.0063 111.07 51.36 110.716 51.36 110.28V110.14C51.36 109.704 51.0063 109.35 50.57 109.35Z" fill="#263238"/>
<path d="M58.68 109.35H53.68C53.2437 109.35 52.89 109.704 52.89 110.14V110.28C52.89 110.716 53.2437 111.07 53.68 111.07H58.68C59.1163 111.07 59.47 110.716 59.47 110.28V110.14C59.47 109.704 59.1163 109.35 58.68 109.35Z" fill="#263238"/>
<path d="M152.08 61.72H126.78C126.08 61.72 125.408 61.4419 124.913 60.9468C124.418 60.4517 124.14 59.7802 124.14 59.08V23.08C124.14 22.3798 124.418 21.7083 124.913 21.2132C125.408 20.7181 126.08 20.44 126.78 20.44H156C156.7 20.44 157.372 20.7181 157.867 21.2132C158.362 21.7083 158.64 22.3798 158.64 23.08V59.08C158.64 59.7802 158.362 60.4517 157.867 60.9468C157.372 61.4419 156.7 61.72 156 61.72H152.08Z" fill="white"/>
<path opacity="0.8" d="M152.08 61.72H126.78C126.08 61.72 125.408 61.4419 124.913 60.9468C124.418 60.4517 124.14 59.7802 124.14 59.08V23.08C124.14 22.3798 124.418 21.7083 124.913 21.2132C125.408 20.7181 126.08 20.44 126.78 20.44H156C156.7 20.44 157.372 20.7181 157.867 21.2132C158.362 21.7083 158.64 22.3798 158.64 23.08V59.08C158.64 59.7802 158.362 60.4517 157.867 60.9468C157.372 61.4419 156.7 61.72 156 61.72H152.08Z" fill="white"/>
<path d="M156 20.45H126.78C126.08 20.45 125.408 20.7282 124.913 21.2233C124.418 21.7183 124.14 22.3898 124.14 23.09V26.98H158.62V23.09C158.62 22.3933 158.345 21.7248 157.854 21.2303C157.363 20.7358 156.697 20.4553 156 20.45Z" fill="#263238"/>
<path d="M154.72 24.99C155.328 24.99 155.82 24.4975 155.82 23.89C155.82 23.2825 155.328 22.79 154.72 22.79C154.112 22.79 153.62 23.2825 153.62 23.89C153.62 24.4975 154.112 24.99 154.72 24.99Z" fill="white"/>
<path d="M150.34 24.99C150.948 24.99 151.44 24.4975 151.44 23.89C151.44 23.2825 150.948 22.79 150.34 22.79C149.732 22.79 149.24 23.2825 149.24 23.89C149.24 24.4975 149.732 24.99 150.34 24.99Z" fill="white"/>
<path d="M145.95 24.99C146.557 24.99 147.05 24.4975 147.05 23.89C147.05 23.2825 146.557 22.79 145.95 22.79C145.342 22.79 144.85 23.2825 144.85 23.89C144.85 24.4975 145.342 24.99 145.95 24.99Z" fill="white"/>
<path d="M138.41 33.61L134.54 35.02L138.41 36.43V37.84L132.88 35.74V34.23L138.41 32.13V33.61Z" fill="#263238"/>
<path d="M142.56 29.31H144.17L140.34 40.25H138.73L142.56 29.31Z" fill="#263238"/>
<path d="M149.91 34.27V35.78L144.38 37.88V36.43L148.25 35.02L144.38 33.61V32.17L149.91 34.27Z" fill="#263238"/>
<path d="M134.17 43.99H128.01C127.574 43.99 127.22 44.3437 127.22 44.78V44.92C127.22 45.3563 127.574 45.71 128.01 45.71H134.17C134.606 45.71 134.96 45.3563 134.96 44.92V44.78C134.96 44.3437 134.606 43.99 134.17 43.99Z" fill="#263238"/>
<path d="M145.37 43.99H137.28C136.844 43.99 136.49 44.3437 136.49 44.78V44.92C136.49 45.3563 136.844 45.71 137.28 45.71H145.37C145.806 45.71 146.16 45.3563 146.16 44.92V44.78C146.16 44.3437 145.806 43.99 145.37 43.99Z" fill="#263238"/>
<path d="M154.77 43.99H148.48C148.044 43.99 147.69 44.3437 147.69 44.78V44.92C147.69 45.3563 148.044 45.71 148.48 45.71H154.77C155.206 45.71 155.56 45.3563 155.56 44.92V44.78C155.56 44.3437 155.206 43.99 154.77 43.99Z" fill="#263238"/>
<path d="M134.81 48.26H128.01C127.574 48.26 127.22 48.6137 127.22 49.05V49.19C127.22 49.6263 127.574 49.98 128.01 49.98H134.81C135.246 49.98 135.6 49.6263 135.6 49.19V49.05C135.6 48.6137 135.246 48.26 134.81 48.26Z" fill="#263238"/>
<path d="M146.66 48.26H137.92C137.484 48.26 137.13 48.6137 137.13 49.05V49.19C137.13 49.6263 137.484 49.98 137.92 49.98H146.66C147.096 49.98 147.45 49.6263 147.45 49.19V49.05C147.45 48.6137 147.096 48.26 146.66 48.26Z" fill="#263238"/>
<path d="M154.77 48.26H149.77C149.334 48.26 148.98 48.6137 148.98 49.05V49.19C148.98 49.6263 149.334 49.98 149.77 49.98H154.77C155.206 49.98 155.56 49.6263 155.56 49.19V49.05C155.56 48.6137 155.206 48.26 154.77 48.26Z" fill="#263238"/>
<path d="M133.52 52.53H128.01C127.574 52.53 127.22 52.8837 127.22 53.32V53.46C127.22 53.8963 127.574 54.25 128.01 54.25H133.52C133.956 54.25 134.31 53.8963 134.31 53.46V53.32C134.31 52.8837 133.956 52.53 133.52 52.53Z" fill="#263238"/>
<path d="M144.72 52.53H136.63C136.194 52.53 135.84 52.8837 135.84 53.32V53.46C135.84 53.8963 136.194 54.25 136.63 54.25H144.72C145.156 54.25 145.51 53.8963 145.51 53.46V53.32C145.51 52.8837 145.156 52.53 144.72 52.53Z" fill="#263238"/>
<path d="M154.77 52.53H147.83C147.394 52.53 147.04 52.8837 147.04 53.32V53.46C147.04 53.8963 147.394 54.25 147.83 54.25H154.77C155.206 54.25 155.56 53.8963 155.56 53.46V53.32C155.56 52.8837 155.206 52.53 154.77 52.53Z" fill="#263238"/>
<path d="M136.1 56.8H128.01C127.574 56.8 127.22 57.1537 127.22 57.59V57.73C127.22 58.1663 127.574 58.52 128.01 58.52H136.1C136.536 58.52 136.89 58.1663 136.89 57.73V57.59C136.89 57.1537 136.536 56.8 136.1 56.8Z" fill="#263238"/>
<path d="M146.66 56.8H139.21C138.774 56.8 138.42 57.1537 138.42 57.59V57.73C138.42 58.1663 138.774 58.52 139.21 58.52H146.66C147.096 58.52 147.45 58.1663 147.45 57.73V57.59C147.45 57.1537 147.096 56.8 146.66 56.8Z" fill="#263238"/>
<path d="M154.77 56.8H149.77C149.334 56.8 148.98 57.1537 148.98 57.59V57.73C148.98 58.1663 149.334 58.52 149.77 58.52H154.77C155.206 58.52 155.56 58.1663 155.56 57.73V57.59C155.56 57.1537 155.206 56.8 154.77 56.8Z" fill="#263238"/>
<path d="M221.26 114.27H195.96C195.26 114.27 194.588 113.992 194.093 113.497C193.598 113.002 193.32 112.33 193.32 111.63V75.63C193.32 74.9298 193.598 74.2583 194.093 73.7632C194.588 73.2681 195.26 72.99 195.96 72.99H225.18C225.88 72.99 226.552 73.2681 227.047 73.7632C227.542 74.2583 227.82 74.9298 227.82 75.63V111.63C227.82 112.33 227.542 113.002 227.047 113.497C226.552 113.992 225.88 114.27 225.18 114.27H221.26Z" fill="white"/>
<path opacity="0.8" d="M221.26 114.27H195.96C195.26 114.27 194.588 113.992 194.093 113.497C193.598 113.002 193.32 112.33 193.32 111.63V75.63C193.32 74.9298 193.598 74.2583 194.093 73.7632C194.588 73.2681 195.26 72.99 195.96 72.99H225.18C225.88 72.99 226.552 73.2681 227.047 73.7632C227.542 74.2583 227.82 74.9298 227.82 75.63V111.63C227.82 112.33 227.542 113.002 227.047 113.497C226.552 113.992 225.88 114.27 225.18 114.27H221.26Z" fill="white"/>
<path d="M225.18 73H195.96C195.26 73 194.588 73.2781 194.093 73.7732C193.598 74.2683 193.32 74.9398 193.32 75.64V79.52H227.82V75.64C227.82 74.9398 227.542 74.2683 227.047 73.7732C226.552 73.2781 225.88 73 225.18 73Z" fill="#263238"/>
<path d="M223.9 77.53C224.508 77.53 225 77.0375 225 76.43C225 75.8225 224.508 75.33 223.9 75.33C223.293 75.33 222.8 75.8225 222.8 76.43C222.8 77.0375 223.293 77.53 223.9 77.53Z" fill="white"/>
<path d="M219.52 77.53C220.127 77.53 220.62 77.0375 220.62 76.43C220.62 75.8225 220.127 75.33 219.52 75.33C218.912 75.33 218.42 75.8225 218.42 76.43C218.42 77.0375 218.912 77.53 219.52 77.53Z" fill="white"/>
<path d="M215.13 77.53C215.738 77.53 216.23 77.0375 216.23 76.43C216.23 75.8225 215.738 75.33 215.13 75.33C214.523 75.33 214.03 75.8225 214.03 76.43C214.03 77.0375 214.523 77.53 215.13 77.53Z" fill="white"/>
<path d="M207.62 86.15L203.75 87.57L207.62 88.97V90.42L202.09 88.32V86.84L207.62 84.73V86.15Z" fill="#263238"/>
<path d="M211.74 81.84H213.36L209.53 92.84H207.91L211.74 81.84Z" fill="#263238"/>
<path d="M219.09 86.84V88.34L213.57 90.44V88.99L217.43 87.59L213.62 86.15V84.71L219.09 86.84Z" fill="#263238"/>
<path d="M203.35 96.53H197.19C196.754 96.53 196.4 96.8837 196.4 97.32V97.46C196.4 97.8963 196.754 98.25 197.19 98.25H203.35C203.786 98.25 204.14 97.8963 204.14 97.46V97.32C204.14 96.8837 203.786 96.53 203.35 96.53Z" fill="#263238"/>
<path d="M214.55 96.53H206.46C206.024 96.53 205.67 96.8837 205.67 97.32V97.46C205.67 97.8963 206.024 98.25 206.46 98.25H214.55C214.986 98.25 215.34 97.8963 215.34 97.46V97.32C215.34 96.8837 214.986 96.53 214.55 96.53Z" fill="#263238"/>
<path d="M223.95 96.53H217.66C217.224 96.53 216.87 96.8837 216.87 97.32V97.46C216.87 97.8963 217.224 98.25 217.66 98.25H223.95C224.386 98.25 224.74 97.8963 224.74 97.46V97.32C224.74 96.8837 224.386 96.53 223.95 96.53Z" fill="#263238"/>
<path d="M203.99 100.81H197.19C196.754 100.81 196.4 101.164 196.4 101.6V101.74C196.4 102.176 196.754 102.53 197.19 102.53H203.99C204.426 102.53 204.78 102.176 204.78 101.74V101.6C204.78 101.164 204.426 100.81 203.99 100.81Z" fill="#263238"/>
<path d="M215.84 100.81H207.1C206.664 100.81 206.31 101.164 206.31 101.6V101.74C206.31 102.176 206.664 102.53 207.1 102.53H215.84C216.276 102.53 216.63 102.176 216.63 101.74V101.6C216.63 101.164 216.276 100.81 215.84 100.81Z" fill="#263238"/>
<path d="M223.95 100.81H218.95C218.514 100.81 218.16 101.164 218.16 101.6V101.74C218.16 102.176 218.514 102.53 218.95 102.53H223.95C224.386 102.53 224.74 102.176 224.74 101.74V101.6C224.74 101.164 224.386 100.81 223.95 100.81Z" fill="#263238"/>
<path d="M202.7 105.08H197.19C196.754 105.08 196.4 105.434 196.4 105.87V106.01C196.4 106.446 196.754 106.8 197.19 106.8H202.7C203.136 106.8 203.49 106.446 203.49 106.01V105.87C203.49 105.434 203.136 105.08 202.7 105.08Z" fill="#263238"/>
<path d="M213.9 105.08H205.81C205.374 105.08 205.02 105.434 205.02 105.87V106.01C205.02 106.446 205.374 106.8 205.81 106.8H213.9C214.336 106.8 214.69 106.446 214.69 106.01V105.87C214.69 105.434 214.336 105.08 213.9 105.08Z" fill="#263238"/>
<path d="M223.96 105.08H217.02C216.584 105.08 216.23 105.434 216.23 105.87V106.01C216.23 106.446 216.584 106.8 217.02 106.8H223.96C224.396 106.8 224.75 106.446 224.75 106.01V105.87C224.75 105.434 224.396 105.08 223.96 105.08Z" fill="#263238"/>
<path d="M205.28 109.35H197.19C196.754 109.35 196.4 109.704 196.4 110.14V110.28C196.4 110.716 196.754 111.07 197.19 111.07H205.28C205.716 111.07 206.07 110.716 206.07 110.28V110.14C206.07 109.704 205.716 109.35 205.28 109.35Z" fill="#263238"/>
<path d="M215.84 109.35H208.39C207.954 109.35 207.6 109.704 207.6 110.14V110.28C207.6 110.716 207.954 111.07 208.39 111.07H215.84C216.276 111.07 216.63 110.716 216.63 110.28V110.14C216.63 109.704 216.276 109.35 215.84 109.35Z" fill="#263238"/>
<path d="M223.95 109.35H218.95C218.514 109.35 218.16 109.704 218.16 110.14V110.28C218.16 110.716 218.514 111.07 218.95 111.07H223.95C224.386 111.07 224.74 110.716 224.74 110.28V110.14C224.74 109.704 224.386 109.35 223.95 109.35Z" fill="#263238"/>
<path d="M108.99 114.27H83.69C82.9898 114.27 82.3183 113.992 81.8232 113.497C81.3281 113.002 81.05 112.33 81.05 111.63V75.63C81.05 74.9298 81.3281 74.2583 81.8232 73.7632C82.3183 73.2681 82.9898 72.99 83.69 72.99H112.91C113.61 72.99 114.282 73.2681 114.777 73.7632C115.272 74.2583 115.55 74.9298 115.55 75.63V111.63C115.55 112.33 115.272 113.002 114.777 113.497C114.282 113.992 113.61 114.27 112.91 114.27H108.99Z" fill="white"/>
<path opacity="0.8" d="M108.99 114.27H83.69C82.9898 114.27 82.3183 113.992 81.8232 113.497C81.3281 113.002 81.05 112.33 81.05 111.63V75.63C81.05 74.9298 81.3281 74.2583 81.8232 73.7632C82.3183 73.2681 82.9898 72.99 83.69 72.99H112.91C113.61 72.99 114.282 73.2681 114.777 73.7632C115.272 74.2583 115.55 74.9298 115.55 75.63V111.63C115.55 112.33 115.272 113.002 114.777 113.497C114.282 113.992 113.61 114.27 112.91 114.27H108.99Z" fill="white"/>
<path d="M112.91 73H83.69C82.9898 73 82.3183 73.2781 81.8232 73.7732C81.3281 74.2683 81.05 74.9398 81.05 75.64V79.52H115.55V75.64C115.55 74.9398 115.272 74.2683 114.777 73.7732C114.282 73.2781 113.61 73 112.91 73Z" fill="#263238"/>
<path d="M111.63 77.53C112.238 77.53 112.73 77.0375 112.73 76.43C112.73 75.8225 112.238 75.33 111.63 75.33C111.023 75.33 110.53 75.8225 110.53 76.43C110.53 77.0375 111.023 77.53 111.63 77.53Z" fill="white"/>
<path d="M107.25 77.53C107.858 77.53 108.35 77.0375 108.35 76.43C108.35 75.8225 107.858 75.33 107.25 75.33C106.643 75.33 106.15 75.8225 106.15 76.43C106.15 77.0375 106.643 77.53 107.25 77.53Z" fill="white"/>
<path d="M102.86 77.53C103.467 77.53 103.96 77.0375 103.96 76.43C103.96 75.8225 103.467 75.33 102.86 75.33C102.252 75.33 101.76 75.8225 101.76 76.43C101.76 77.0375 102.252 77.53 102.86 77.53Z" fill="white"/>
<path d="M95.32 86.15L91.45 87.57L95.32 88.97V90.42L89.79 88.32V86.84L95.32 84.73V86.15Z" fill="#263238"/>
<path d="M99.47 81.84H101.09L97.26 92.84H95.62L99.47 81.84Z" fill="#263238"/>
<path d="M106.82 86.84V88.34L101.3 90.44V88.99L105.16 87.59L101.3 86.17V84.73L106.82 86.84Z" fill="#263238"/>
<path d="M93.01 96.53H84.92C84.4837 96.53 84.13 96.8837 84.13 97.32V97.46C84.13 97.8963 84.4837 98.25 84.92 98.25H93.01C93.4463 98.25 93.8 97.8963 93.8 97.46V97.32C93.8 96.8837 93.4463 96.53 93.01 96.53Z" fill="#263238"/>
<path d="M104.21 96.53H96.12C95.6837 96.53 95.33 96.8837 95.33 97.32V97.46C95.33 97.8963 95.6837 98.25 96.12 98.25H104.21C104.646 98.25 105 97.8963 105 97.46V97.32C105 96.8837 104.646 96.53 104.21 96.53Z" fill="#263238"/>
<path d="M111.69 96.53H107.33C106.894 96.53 106.54 96.8837 106.54 97.32V97.46C106.54 97.8963 106.894 98.25 107.33 98.25H111.69C112.126 98.25 112.48 97.8963 112.48 97.46V97.32C112.48 96.8837 112.126 96.53 111.69 96.53Z" fill="#263238"/>
<path d="M91.08 100.81H84.92C84.4837 100.81 84.13 101.164 84.13 101.6V101.74C84.13 102.176 84.4837 102.53 84.92 102.53H91.08C91.5163 102.53 91.87 102.176 91.87 101.74V101.6C91.87 101.164 91.5163 100.81 91.08 100.81Z" fill="#263238"/>
<path d="M102.93 100.81H94.19C93.7537 100.81 93.4 101.164 93.4 101.6V101.74C93.4 102.176 93.7537 102.53 94.19 102.53H102.93C103.366 102.53 103.72 102.176 103.72 101.74V101.6C103.72 101.164 103.366 100.81 102.93 100.81Z" fill="#263238"/>
<path d="M111.69 100.81H106.04C105.604 100.81 105.25 101.164 105.25 101.6V101.74C105.25 102.176 105.604 102.53 106.04 102.53H111.69C112.126 102.53 112.48 102.176 112.48 101.74V101.6C112.48 101.164 112.126 100.81 111.69 100.81Z" fill="#263238"/>
<path d="M93.01 105.08H84.92C84.4837 105.08 84.13 105.434 84.13 105.87V106.01C84.13 106.446 84.4837 106.8 84.92 106.8H93.01C93.4463 106.8 93.8 106.446 93.8 106.01V105.87C93.8 105.434 93.4463 105.08 93.01 105.08Z" fill="#263238"/>
<path d="M104.21 105.08H96.12C95.6837 105.08 95.33 105.434 95.33 105.87V106.01C95.33 106.446 95.6837 106.8 96.12 106.8H104.21C104.646 106.8 105 106.446 105 106.01V105.87C105 105.434 104.646 105.08 104.21 105.08Z" fill="#263238"/>
<path d="M111.69 105.08H107.33C106.894 105.08 106.54 105.434 106.54 105.87V106.01C106.54 106.446 106.894 106.8 107.33 106.8H111.69C112.126 106.8 112.48 106.446 112.48 106.01V105.87C112.48 105.434 112.126 105.08 111.69 105.08Z" fill="#263238"/>
<path d="M89.79 109.35H84.92C84.4837 109.35 84.13 109.704 84.13 110.14V110.28C84.13 110.716 84.4837 111.07 84.92 111.07H89.79C90.2263 111.07 90.58 110.716 90.58 110.28V110.14C90.58 109.704 90.2263 109.35 89.79 109.35Z" fill="#263238"/>
<path d="M102.28 109.35H92.9C92.4637 109.35 92.11 109.704 92.11 110.14V110.28C92.11 110.716 92.4637 111.07 92.9 111.07H102.28C102.716 111.07 103.07 110.716 103.07 110.28V110.14C103.07 109.704 102.716 109.35 102.28 109.35Z" fill="#263238"/>
<path d="M111.68 109.35H105.39C104.954 109.35 104.6 109.704 104.6 110.14V110.28C104.6 110.716 104.954 111.07 105.39 111.07H111.68C112.116 111.07 112.47 110.716 112.47 110.28V110.14C112.47 109.704 112.116 109.35 111.68 109.35Z" fill="#263238"/>
<path d="M173.25 106.98C178.182 106.98 182.18 102.982 182.18 98.05C182.18 93.1181 178.182 89.12 173.25 89.12C168.318 89.12 164.32 93.1181 164.32 98.05C164.32 102.982 168.318 106.98 173.25 106.98Z" fill="#263238"/>
<path d="M172.45 103.39L166.9 97.84C166.8 97.7405 166.72 97.6222 166.666 97.4917C166.611 97.3613 166.583 97.2213 166.583 97.08C166.583 96.9387 166.611 96.7988 166.666 96.6683C166.72 96.5379 166.8 96.4195 166.9 96.32C166.999 96.2197 167.118 96.14 167.248 96.0856C167.379 96.0312 167.519 96.0032 167.66 96.0032C167.801 96.0032 167.941 96.0312 168.072 96.0856C168.202 96.14 168.321 96.2197 168.42 96.32L172.42 100.32L181.99 90.74C182.089 90.6396 182.208 90.56 182.338 90.5056C182.469 90.4512 182.609 90.4232 182.75 90.4232C182.891 90.4232 183.031 90.4512 183.162 90.5056C183.292 90.56 183.411 90.6396 183.51 90.74C183.61 90.8395 183.69 90.9579 183.744 91.0883C183.799 91.2188 183.827 91.3587 183.827 91.5C183.827 91.6414 183.799 91.7813 183.744 91.9117C183.69 92.0422 183.61 92.1606 183.51 92.26L172.45 103.39Z" fill="white"/>
<g opacity="0.5">
<path d="M172.45 103.39L166.9 97.84C166.8 97.7405 166.72 97.6222 166.666 97.4917C166.611 97.3613 166.583 97.2213 166.583 97.08C166.583 96.9387 166.611 96.7988 166.666 96.6683C166.72 96.5379 166.8 96.4195 166.9 96.32C166.999 96.2197 167.118 96.14 167.248 96.0856C167.379 96.0312 167.519 96.0032 167.66 96.0032C167.801 96.0032 167.941 96.0312 168.072 96.0856C168.202 96.14 168.321 96.2197 168.42 96.32L172.42 100.32L181.99 90.74C182.089 90.6396 182.208 90.56 182.338 90.5056C182.469 90.4512 182.609 90.4232 182.75 90.4232C182.891 90.4232 183.031 90.4512 183.162 90.5056C183.292 90.56 183.411 90.6396 183.51 90.74C183.61 90.8395 183.69 90.9579 183.744 91.0883C183.799 91.2188 183.827 91.3587 183.827 91.5C183.827 91.6414 183.799 91.7813 183.744 91.9117C183.69 92.0422 183.61 92.1606 183.51 92.26L172.45 103.39Z" fill="white"/>
</g>
<path d="M173.25 52.92C178.182 52.92 182.18 48.9219 182.18 43.99C182.18 39.0581 178.182 35.06 173.25 35.06C168.318 35.06 164.32 39.0581 164.32 43.99C164.32 48.9219 168.318 52.92 173.25 52.92Z" fill="#263238"/>
<path d="M178.68 38.55C178.581 38.4496 178.462 38.3699 178.332 38.3155C178.201 38.2612 178.061 38.2332 177.92 38.2332C177.779 38.2332 177.639 38.2612 177.508 38.3155C177.378 38.3699 177.259 38.4496 177.16 38.55L173.25 42.47L169.33 38.55C169.231 38.4496 169.112 38.3699 168.982 38.3155C168.851 38.2612 168.711 38.2332 168.57 38.2332C168.429 38.2332 168.289 38.2612 168.158 38.3155C168.028 38.3699 167.909 38.4496 167.81 38.55C167.612 38.7535 167.501 39.0261 167.501 39.31C167.501 39.5938 167.612 39.8665 167.81 40.07L171.73 43.99L167.81 47.9C167.612 48.1034 167.501 48.3761 167.501 48.66C167.501 48.9438 167.612 49.2165 167.81 49.42C167.909 49.5203 168.028 49.6 168.158 49.6544C168.289 49.7088 168.429 49.7368 168.57 49.7368C168.711 49.7368 168.851 49.7088 168.982 49.6544C169.112 49.6 169.231 49.5203 169.33 49.42L173.25 45.51L177.16 49.42C177.259 49.5203 177.378 49.6 177.508 49.6544C177.639 49.7088 177.779 49.7368 177.92 49.7368C178.061 49.7368 178.201 49.7088 178.332 49.6544C178.462 49.6 178.581 49.5203 178.68 49.42C178.78 49.3205 178.86 49.2021 178.914 49.0717C178.969 48.9412 178.997 48.8013 178.997 48.66C178.997 48.5186 178.969 48.3787 178.914 48.2483C178.86 48.1178 178.78 47.9994 178.68 47.9L174.77 43.99L178.68 40.07C178.78 39.9705 178.86 39.8521 178.914 39.7217C178.969 39.5912 178.997 39.4513 178.997 39.31C178.997 39.1686 178.969 39.0287 178.914 38.8983C178.86 38.7678 178.78 38.6495 178.68 38.55Z" fill="white"/>
<path opacity="0.5" d="M178.68 38.55C178.581 38.4496 178.462 38.3699 178.332 38.3155C178.201 38.2612 178.061 38.2332 177.92 38.2332C177.779 38.2332 177.639 38.2612 177.508 38.3155C177.378 38.3699 177.259 38.4496 177.16 38.55L173.25 42.47L169.33 38.55C169.231 38.4496 169.112 38.3699 168.982 38.3155C168.851 38.2612 168.711 38.2332 168.57 38.2332C168.429 38.2332 168.289 38.2612 168.158 38.3155C168.028 38.3699 167.909 38.4496 167.81 38.55C167.612 38.7535 167.501 39.0261 167.501 39.31C167.501 39.5938 167.612 39.8665 167.81 40.07L171.73 43.99L167.81 47.9C167.612 48.1034 167.501 48.3761 167.501 48.66C167.501 48.9438 167.612 49.2165 167.81 49.42C167.909 49.5203 168.028 49.6 168.158 49.6544C168.289 49.7088 168.429 49.7368 168.57 49.7368C168.711 49.7368 168.851 49.7088 168.982 49.6544C169.112 49.6 169.231 49.5203 169.33 49.42L173.25 45.51L177.16 49.42C177.259 49.5203 177.378 49.6 177.508 49.6544C177.639 49.7088 177.779 49.7368 177.92 49.7368C178.061 49.7368 178.201 49.7088 178.332 49.6544C178.462 49.6 178.581 49.5203 178.68 49.42C178.78 49.3205 178.86 49.2021 178.914 49.0717C178.969 48.9412 178.997 48.8013 178.997 48.66C178.997 48.5186 178.969 48.3787 178.914 48.2483C178.86 48.1178 178.78 47.9994 178.68 47.9L174.77 43.99L178.68 40.07C178.78 39.9705 178.86 39.8521 178.914 39.7217C178.969 39.5912 178.997 39.4513 178.997 39.31C178.997 39.1686 178.969 39.0287 178.914 38.8983C178.86 38.7678 178.78 38.6495 178.68 38.55Z" fill="white"/>
<path d="M168.62 45.08H158.39C158.101 45.08 157.824 44.9652 157.619 44.7608C157.415 44.5564 157.3 44.2791 157.3 43.99C157.3 43.7009 157.415 43.4237 157.619 43.2193C157.824 43.0149 158.101 42.9 158.39 42.9H168.62V45.08Z" fill="#263238"/>
<path d="M111.98 31.6L77.5 40.31L43.03 31.6C41.1054 31.1031 39.3995 29.983 38.1784 28.4146C36.9573 26.8462 36.2898 24.9177 36.28 22.93V8.93C36.28 7.75645 36.5113 6.59441 36.9607 5.51032C37.4101 4.42623 38.0688 3.44136 38.8991 2.612C39.7294 1.78265 40.715 1.12507 41.7996 0.676885C42.8842 0.228699 44.0465 -0.00130856 45.22 5.5997e-06H109.79C112.158 5.5997e-06 114.43 0.940845 116.104 2.61555C117.779 4.29024 118.72 6.56162 118.72 8.93V22.93C118.711 24.9164 118.045 26.8439 116.826 28.4121C115.606 29.9804 113.903 31.1012 111.98 31.6Z" fill="white"/>
<path d="M46.19 13.33C46.48 13.4631 46.7386 13.6558 46.949 13.8956C47.1595 14.1354 47.317 14.4168 47.4114 14.7216C47.5057 15.0264 47.5348 15.3476 47.4967 15.6644C47.4585 15.9812 47.354 16.2863 47.19 16.56C46.9442 16.9183 46.5955 17.1937 46.19 17.35C45.7294 17.548 45.2312 17.6435 44.73 17.63H43.46V19.37H42V13.05H44.73C45.2312 13.0364 45.7294 13.132 46.19 13.33ZM45.66 16.15C45.7682 16.0447 45.8543 15.9187 45.9131 15.7796C45.9718 15.6405 46.0021 15.491 46.0021 15.34C46.0021 15.1889 45.9718 15.0395 45.9131 14.9003C45.8543 14.7612 45.7682 14.6353 45.66 14.53C45.3697 14.3216 45.0167 14.2192 44.66 14.24H43.47V16.44H44.62C44.9767 16.4607 45.3297 16.3583 45.62 16.15H45.66Z" fill="#263238"/>
<path d="M49.19 18.73C48.9272 18.4423 48.7253 18.1044 48.5964 17.7366C48.4675 17.3689 48.4143 16.9788 48.44 16.59V13.05H49.9V16.53C49.9 17.67 50.37 18.23 51.31 18.23C51.5045 18.2441 51.6997 18.2146 51.8814 18.1437C52.063 18.0728 52.2266 17.9622 52.36 17.82C52.6318 17.4475 52.7597 16.9893 52.72 16.53V13.05H54.16V16.59C54.142 17.1609 53.9613 17.7149 53.6392 18.1867C53.3172 18.6585 52.8671 19.0285 52.3419 19.2533C51.8168 19.478 51.2384 19.5482 50.6747 19.4555C50.111 19.3628 49.5855 19.1111 49.16 18.73H49.19Z" fill="#263238"/>
<path d="M55.62 13.05H57.08V18.18H60.25V19.37H55.62V13.05Z" fill="#263238"/>
<path d="M61.0601 13.05H62.5201V18.18H65.6901V19.37H61.0601V13.05Z" fill="#263238"/>
<path d="M73.1001 19.37L71.8801 17.61H70.5301V19.37H69.0701V13.05H71.8101C72.308 13.0363 72.803 13.1319 73.2601 13.33C73.6556 13.4889 73.992 13.7666 74.2231 14.1249C74.4541 14.4831 74.5684 14.9041 74.55 15.33C74.563 15.7617 74.4445 16.1872 74.2101 16.55C73.966 16.9078 73.6165 17.1804 73.2101 17.33L74.6301 19.33L73.1001 19.37ZM72.73 14.53C72.4398 14.3217 72.0867 14.2193 71.73 14.24H70.5401V16.44H71.73C72.0856 16.4636 72.4385 16.3648 72.73 16.16C72.846 16.0587 72.9371 15.932 72.996 15.7898C73.055 15.6476 73.0804 15.4936 73.0701 15.34C73.0788 15.188 73.0527 15.036 72.9938 14.8957C72.9349 14.7553 72.8446 14.6302 72.73 14.53Z" fill="#263238"/>
<path d="M80.62 18.2V19.37H75.73V13.05H80.5V14.22H77.18V15.6H80.11V16.73H77.18V18.2H80.62Z" fill="#263238"/>
<path d="M88.6201 20.05C88.4204 20.2968 88.1674 20.4951 87.8801 20.63C87.5643 20.7647 87.2232 20.8295 86.8801 20.82C86.4353 20.8262 85.9958 20.7231 85.6001 20.52C85.1146 20.2319 84.6761 19.871 84.3 19.45C83.7538 19.39 83.2295 19.2016 82.77 18.9C82.3446 18.6119 82.0003 18.2194 81.77 17.76C81.5192 17.2823 81.392 16.7495 81.4001 16.21C81.3908 15.6222 81.5467 15.0436 81.8501 14.54C82.1424 14.0425 82.5685 13.6371 83.08 13.37C83.6291 13.0875 84.2376 12.9402 84.855 12.9402C85.4725 12.9402 86.081 13.0875 86.6301 13.37C87.1394 13.6401 87.5648 14.0448 87.86 14.54C88.171 15.0407 88.3308 15.6206 88.3201 16.21C88.331 16.904 88.113 17.5822 87.7 18.14C87.2911 18.6917 86.7164 19.0981 86.0601 19.3C86.1862 19.4377 86.335 19.5527 86.5001 19.64C86.6402 19.7079 86.7943 19.7422 86.95 19.74C87.1401 19.7348 87.3271 19.6903 87.4991 19.6095C87.6712 19.5286 87.8247 19.413 87.95 19.27L88.6201 20.05ZM83.1301 17.26C83.2969 17.56 83.5424 17.8089 83.8401 17.98C84.1458 18.1493 84.4906 18.2355 84.8401 18.23C85.1895 18.2355 85.5343 18.1493 85.8401 17.98C86.1345 17.8048 86.379 17.5568 86.55 17.26C86.7144 16.9344 86.8 16.5747 86.8 16.21C86.8 15.8452 86.7144 15.4856 86.55 15.16C86.379 14.8631 86.1345 14.6152 85.8401 14.44C85.5343 14.2707 85.1895 14.1845 84.8401 14.19C84.4906 14.1845 84.1458 14.2707 83.8401 14.44C83.5424 14.6111 83.2969 14.86 83.1301 15.16C82.9593 15.4837 82.87 15.8441 82.87 16.21C82.87 16.5759 82.9593 16.9363 83.1301 17.26Z" fill="#263238"/>
<path d="M90.07 18.73C89.8035 18.4444 89.5984 18.1071 89.4677 17.739C89.3369 17.3708 89.2833 16.9797 89.31 16.59V13.05H90.78V16.53C90.78 17.67 91.25 18.23 92.18 18.23C92.3746 18.2448 92.57 18.2157 92.7518 18.1447C92.9335 18.0737 93.097 17.9627 93.23 17.82C93.5018 17.4475 93.6297 16.9893 93.59 16.53V13.05H95.04V16.59C95.022 17.1609 94.8413 17.7149 94.5193 18.1867C94.1972 18.6585 93.7471 19.0285 93.222 19.2533C92.6968 19.478 92.1184 19.5482 91.5547 19.4555C90.991 19.3628 90.4656 19.1111 90.04 18.73H90.07Z" fill="#263238"/>
<path d="M101.38 18.2V19.37H96.48V13.05H101.26V14.22H97.94V15.6H100.87V16.73H97.94V18.2H101.38Z" fill="#263238"/>
<path d="M103.17 19.28C102.766 19.1682 102.384 18.989 102.04 18.75L102.54 17.65C102.846 17.8586 103.184 18.0173 103.54 18.12C103.901 18.239 104.28 18.2997 104.66 18.3C104.977 18.3204 105.294 18.2584 105.58 18.12C105.67 18.073 105.745 18.0027 105.798 17.9164C105.85 17.8301 105.879 17.7311 105.88 17.63C105.881 17.5571 105.865 17.4851 105.834 17.4192C105.803 17.3534 105.757 17.2955 105.7 17.25C105.566 17.1425 105.414 17.0611 105.25 17.01C105.06 16.95 104.82 16.89 104.5 16.82C104.1 16.7268 103.706 16.61 103.32 16.47C103.014 16.3579 102.741 16.1684 102.53 15.92C102.301 15.6384 102.184 15.2825 102.2 14.92C102.197 14.564 102.301 14.2153 102.5 13.92C102.724 13.6006 103.037 13.3538 103.4 13.21C103.864 13.0267 104.361 12.9383 104.86 12.95C105.261 12.9493 105.661 12.9997 106.05 13.1C106.403 13.1825 106.741 13.3209 107.05 13.51L106.6 14.62C106.069 14.3076 105.466 14.1387 104.85 14.13C104.535 14.1059 104.219 14.1718 103.94 14.32C103.849 14.3751 103.773 14.4528 103.72 14.5456C103.668 14.6385 103.64 14.7433 103.64 14.85C103.642 14.955 103.675 15.057 103.736 15.1427C103.796 15.2284 103.882 15.2937 103.98 15.33C104.301 15.4686 104.637 15.5725 104.98 15.64C105.38 15.7332 105.774 15.85 106.16 15.99C106.466 16.0984 106.738 16.2845 106.95 16.53C107.182 16.8097 107.3 17.167 107.28 17.53C107.284 17.8861 107.179 18.235 106.98 18.53C106.75 18.8478 106.434 19.0939 106.07 19.24C105.602 19.4243 105.103 19.5127 104.6 19.5C104.116 19.4919 103.634 19.4179 103.17 19.28Z" fill="#263238"/>
<path d="M109.52 14.24H107.52V13.05H113.03V14.24H111.03V19.37H109.52V14.24Z" fill="#263238"/>
</svg>
